<svg xmlns="http://www.w3.org/2000/svg" viewBox="0 0 1040 320" role="img" aria-label="Copal horizontal logo">
  <g transform="translate(28 28) scale(.515625)">
    <path fill="#3F4043" d="M39.0 261.9Q37.9 220.0 40.1 194.2Q42.2 168.4 49.2 143.2Q56.2 117.9 66.9 100.8Q77.7 83.6 95.7 69.3Q113.6 55.1 135.7 47.0Q157.7 39.0 188.3 35.2Q218.9 31.5 258.1 32.5Q297.4 33.6 328.0 39.0Q358.6 44.4 371.5 49.7Q384.4 55.1 391.1 61.8Q397.8 68.5 396.7 77.1Q395.7 85.7 378.2 109.6Q360.7 133.5 305.4 141.0Q250.1 148.6 218.4 159.8Q186.7 171.1 168.7 188.6Q150.7 206.0 145.3 226.5Q140.0 246.9 142.7 270.0Q145.3 293.1 154.5 315.6Q163.6 338.2 175.2 351.9Q186.7 365.6 196.9 371.5Q207.1 377.4 221.6 380.6Q236.1 383.8 262.4 380.6Q288.8 377.4 302.2 369.3Q315.6 361.3 332.3 340.3Q348.9 319.4 362.6 281.5Q376.3 243.6 380.6 195.8Q384.9 148.0 398.9 127.1Q412.9 106.1 422.3 101.0Q431.7 95.9 437.8 100.0Q444.0 104.0 449.9 114.2Q455.8 124.4 462.8 150.7Q469.8 177.0 471.9 218.9Q474.1 260.8 470.9 299.0Q467.6 337.1 461.7 361.3Q455.8 385.5 446.2 404.8Q436.5 424.1 421.7 438.9Q406.9 453.7 387.1 462.8Q367.2 471.9 339.3 476.2Q311.3 480.5 255.5 479.5Q199.6 478.4 173.8 473.6Q148.0 468.7 123.9 456.9Q99.7 445.1 84.4 428.2Q69.1 411.2 59.9 389.8Q50.8 368.3 45.4 336.0Q40.1 303.8 39.0 261.9Z"/>
    <path fill="#D98924" d="M171.7 272.7Q167.9 249.0 173.3 233.4Q178.6 217.9 184.8 211.7Q191.0 205.5 203.4 198.5Q215.7 191.5 249.0 181.9Q282.3 172.2 307.0 170.6Q331.7 169.0 340.3 171.7Q348.9 174.4 351.9 178.9Q354.8 183.5 353.8 202.8Q352.7 222.2 346.8 242.6Q340.9 263.0 330.7 285.0Q320.5 307.0 306.8 323.4Q293.1 339.8 280.7 346.8Q268.4 353.8 255.5 355.4Q242.6 357.0 228.1 353.2Q213.6 349.5 202.6 339.5Q191.5 329.6 183.5 312.9Q175.4 296.3 171.7 272.7Z"/>
  </g>
  <text x="350" y="224" fill="#3F4043" font-family="Newsreader, 'Iowan Old Style', Georgia, serif" font-size="218" font-weight="400" letter-spacing="-6">copal</text>
</svg>
